<?xml version="1.0" encoding="UTF-8"?>
<svg width="208px" height="208px" viewBox="0 0 208 208" version="1.1" xmlns="http://www.w3.org/2000/svg" xmlns:xlink="http://www.w3.org/1999/xlink">
    <!-- Generator: Sketch 41.2 (35397) - http://www.bohemiancoding.com/sketch -->
    <title>Group 2</title>
    <desc>Created with Sketch.</desc>
    <defs>
        <rect id="path-1" x="0" y="0" width="208" height="208"></rect>
    </defs>
    <g id="Page-1" stroke="none" stroke-width="1" fill="none" fill-rule="evenodd">
        <g id="Group-2">
            <g id="Combined-Shape">
                <mask id="mask-2" fill="white">
                    <use xlink:href="#path-1"></use>
                </mask>
                <use id="Mask" fill="#323232" xlink:href="#path-1"></use>
                <path d="M43.4639147,62.7300528 L39.3054425,53.2933595 L57.3275702,33.4375911 L64.9202162,32.3095171 L64.6496449,37.3650371 C64.6496449,37.3650371 79.0169792,26.2841031 91.3508663,26.2841031 C103.684753,26.2841031 107.841144,28.5756336 107.841144,28.5756336 L119.550636,16.6080583 L129.366129,15.0220945 L147.935643,39.9770905 L148.541307,43.7671696 C148.541307,43.7671696 157.513866,58.4050751 160.138408,66.278699 C162.762949,74.1523229 189.595293,137.728245 202.505705,159.151246 C215.416117,180.574246 222.823526,196.073817 222.823526,196.073817 L177.311358,229.959746 C177.311358,229.959746 151.261589,120.517831 149.598616,113.335205 C147.935643,106.152578 138.009841,71.694287 138.009841,71.694287 C138.009841,71.694287 133.851368,87.7100246 128.025761,95.8167561 C122.200153,103.923487 116.946908,107.836364 116.946908,107.836364 L119.975225,114.094886 L123.20543,117.526978 L113.510653,112.808632 C113.510653,112.808632 109.643565,116.15539 111.577109,121.60636 C113.510653,127.057331 122.05238,125.60249 122.05238,125.60249 C122.05238,125.60249 136.257371,123.046632 139.0838,127.488164 C141.910229,131.929695 141.966425,142.213484 141.966425,147.370989 C141.966425,152.528494 142.459697,163.984065 142.459697,163.984065 C142.459697,163.984065 149.484144,208.424355 156.881146,227.639077 C164.278148,246.8538 125.977745,235.237967 125.977745,235.237967 C125.977745,235.237967 122.185584,189.17425 122.118982,181.015485 C122.05238,172.856721 122.297975,162.652022 122.297975,162.652022 C122.297975,162.652022 118.676483,167.9573 116.093568,171.949267 C113.510653,175.941233 113.849908,180.538864 113.849908,180.538864 L100.933252,202.140857 L97.8966096,209.693958 L97.4865901,217.723681 L99.505468,224.415117 L112.911234,240.522432 L16.5566429,243.022094 L-16.8235262,235.912314 C-16.8235262,235.912314 23.3604696,124.824077 27.3982254,113.597451 C31.4359812,102.370825 38.2772716,77.5053252 38.2772716,77.5053252 L41.5366148,66.6887185 L43.4639147,62.7300528 Z M54.9590309,108.660566 C54.9590309,108.660566 63.3425775,119.970445 63.3425775,122.998762 C63.3425775,126.027079 66.768426,113.888835 66.768426,113.888835 C66.768426,113.888835 69.2556004,122.045518 72.8895806,122.52214 C76.5235609,122.998762 79.953572,123.933273 79.953572,123.933273 C79.953572,123.933273 70.9893378,117.899534 70.9893378,117.098227 C70.9893378,116.29692 68.7456776,110.979154 68.7456776,110.979154 L69.3643492,109.264148 C69.3643492,109.264148 73.7252296,115.598638 76.8394008,117.042552 C79.953572,118.486466 86.200126,122.046039 86.200126,122.046039 L89.2164753,122.153227 L90.7077392,122.50653 L90.2857521,125.121706 C90.2857521,125.121706 88.4547131,125.773678 88.4547131,126.367894 C88.4547131,126.962111 87.3781516,129.082453 86.7891388,129.777613 C86.200126,130.472773 86.106987,130.413975 85.4622989,131.835515 C84.8176109,133.257055 84.3961441,133.967305 83.5162671,133.967305 C82.6363902,133.967305 79.8880105,133.142062 78.8291403,133.554684 C77.77027,133.967305 73.8880927,134.745197 72.969191,134.745197 C72.0502894,134.745197 70.262958,135.093818 70.262958,135.093818 C70.262958,135.093818 69.8857192,135.420585 69.6250342,136.779165 C69.3643492,138.137745 68.7768974,137.263591 67.7726617,140.924108 C66.768426,144.584625 66.5759042,145.815725 66.5759042,145.815725 C66.5759042,145.815725 59.9937378,148.698349 59.9937378,149.905513 C59.9937378,151.112677 58.8063462,151.761008 58.8063462,152.69708 C58.8063462,153.633153 59.1632921,151.501363 57.7662078,154.709194 C56.3691235,157.917024 58.044584,153.892277 55.3992295,159.769917 C52.7538751,165.647558 52.3448962,165.829153 52.3448962,166.905194 C52.3448962,167.981235 51.8188432,168.931356 51.8188432,170.147366 C51.8188432,171.363376 51.5633615,171.635508 50.8682015,172.699582 C50.1730415,173.763655 49.2994085,172.87025 49.2994085,172.87025 C49.2994085,172.87025 50.0325525,147.243508 50.0325525,146.529616 C50.0325525,145.815725 51.4244336,139.988556 51.6216384,138.38386 C51.8188432,136.779165 53.3153105,122.228154 53.3153105,122.137096 C53.3153105,122.046039 53.8496887,114.0543 53.8496887,113.971568 C53.8496887,113.888835 54.9590309,108.660566 54.9590309,108.660566 Z" fill="#000000" mask="url(#mask-2)"></path>
            </g>
            <path d="M105.296703,54 C95.0302198,54 86.9835165,56.9134615 81.0178571,62.7403846 C74.9134615,68.5673077 72,76.614011 72,86.8804945 L87.8159341,86.8804945 C87.8159341,80.9148352 88.9258242,76.3365385 91.2843407,73.1456044 C94.0590659,69.3997253 98.3598901,67.5961538 104.325549,67.5961538 C109.042582,67.5961538 112.788462,68.8447802 115.424451,71.4807692 C117.921703,74.1167582 119.309066,77.7239011 119.309066,82.3021978 C119.309066,85.7706044 118.06044,89.1002747 115.563187,92.1524725 L113.898352,94.0947802 C104.880495,102.141484 99.4697802,107.968407 97.6662088,111.714286 C95.7239011,115.460165 94.8914835,120.038462 94.8914835,125.31044 L94.8914835,127.252747 L110.846154,127.252747 L110.846154,125.31044 C110.846154,121.980769 111.539835,118.928571 112.927198,116.153846 C114.175824,113.656593 115.979396,111.298077 118.476648,109.355769 C125.135989,103.528846 129.159341,99.782967 130.407967,98.3956044 C133.737637,93.956044 135.541209,88.2678571 135.541209,81.331044 C135.541209,72.8681319 132.766484,66.2087912 127.217033,61.353022 C121.667582,56.3585165 114.31456,54 105.296703,54 Z M102.799451,134.050824 C99.7472527,134.050824 97.25,135.021978 95.3076923,136.964286 C93.0879121,138.906593 92.1167582,141.403846 92.1167582,144.456044 C92.1167582,147.508242 93.0879121,150.005495 95.3076923,151.947802 C97.25,153.89011 99.7472527,155 102.799451,155 C105.851648,155 108.348901,154.028846 110.568681,152.086538 C112.510989,150.144231 113.620879,147.508242 113.620879,144.456044 C113.620879,141.403846 112.510989,138.906593 110.568681,136.964286 C108.487637,135.021978 105.851648,134.050824 102.799451,134.050824 Z" id="?" fill="#929292"></path>
        </g>
    </g>
</svg>